<svg xmlns="http://www.w3.org/2000/svg" viewBox="0 0 323.28 51.5"><defs><style>.cls-1{fill:#fff;}</style></defs><title>logo</title><g id="レイヤー_2" data-name="レイヤー 2"><g id="レイヤー_1-2" data-name="レイヤー 1"><path class="cls-1" d="M51.4,30.33a.7.7,0,0,0-.25,0c-.41.05-.62.5-.7.9A2.15,2.15,0,0,1,50,32.36c-.7.69-1.94-.24-2.84.14a1.19,1.19,0,0,1-.5.17c-.37,0-.47-.5-.48-.87l-.06-1.88A.6.6,0,0,0,46,29.4c-.29-.18-.61.2-.69.54a1.25,1.25,0,0,1-.37.73c-.15-.32-.29-.61-.45-.89a7,7,0,0,0-.28-1,1.89,1.89,0,0,0-.75-.51l-.26-.3a10.76,10.76,0,0,0-2.41-2c-.4-1.69-1.25-2.4-1.35-2.94s-1.27-2.25-1.33-2.89-.63-1.79-1.67-.57A2.49,2.49,0,0,0,36,22.45a1.69,1.69,0,0,1,.31,1.18,27.7,27.7,0,0,0-3.29-1,8.2,8.2,0,0,1-.75-1,2.94,2.94,0,0,1-.58.27c-.16,0-.91-1-1.31-1.22a13.57,13.57,0,0,0-1.52-.73c-.31-.08-.16.58-.22.75a.88.88,0,0,0,0,.16c-.23-.68-.44-1.37-.63-2.06-.34-1.22-.68-2.44-1-3.66a4.19,4.19,0,0,1-.39-1.38,35.17,35.17,0,0,0-.91-4,22,22,0,0,0-2.13-4.75.24.24,0,0,1-.13-.26,2.08,2.08,0,0,1-.52-.73l0,0v0l-.23-.32c-.2-.24-.42-.47-.59-.72l0,0-.1-.12a1.53,1.53,0,0,1-.16-.37l-.08.1c-.14-.16-.31-.35-.48-.56l-.05-.08-.21-.23q-.17,0-.15-.15l-.35-.32c-.08,0-.12,0-.09-.1L20.06.75A6.64,6.64,0,0,0,18.23.06c-.16,0-.34-.13-.42,0s.16.2.27.26a8.52,8.52,0,0,1,.8.53,2.07,2.07,0,0,1-1-.34h-.18c0,.21.2.42,0,.63s-.17.1-.27.13c0,.21.11.34.23.48l.2,0,0,0-.18-.08L17.43,2l.49.27a4.13,4.13,0,0,1,1.65.88c-.33-.08-.66-.18-1-.25-.15,0-.29-.28-.45,0s.08.3.15.43a1.11,1.11,0,0,1,.07.16L19.54,4l.29.22a4.39,4.39,0,0,1,2.3,1.81c-.73-.7-1.77-1-2.46-1.71l-.44.19a.08.08,0,0,0,0,.09l.1.09c.34,0,.47.39.49.54,0,.52.44.65.76.86A6.72,6.72,0,0,1,22.8,8.47,9.58,9.58,0,0,0,21.15,7l.48.63a.6.6,0,0,1,.19.53c-.23.93.44,1.58.71,2.35a3.9,3.9,0,0,1,.38,1.74c-.42-.4-.46-1-1-1.28a3,3,0,0,0,.14,2.09c.39.71.09,1.59.47,2.34a8.56,8.56,0,0,0-1.13-1.6,1.35,1.35,0,0,0,.15,1.73c.08.1.2.21.1.36s-.18.06-.25,0c-.87-.83-2-1.34-2.74-2.34l-.32-.33a10.1,10.1,0,0,1-2-2.1c-.19-.25-.37-.5-.57-.74s-.27-.56-.62-.27,0,.49.14.67c.35.46.62,1,1,1.59-.94-.47-1.53-1.17-2.34-1.54-.21.18.12.51-.18.62s-.46-.16-.64-.31c-.52-.41-1-.84-1.56-1.23.4.94,1.33,1.44,1.87,2.25a.2.2,0,0,1-.28.07,19.23,19.23,0,0,1-1.62-1.1c-.63-.65-1.3-1.26-1.95-1.89-.09-.08-.2-.17-.3-.07s0,.23.07.3A10.07,10.07,0,0,1,10.64,11c.1.15.35.3.21.49s-.33,0-.49-.1a2.69,2.69,0,0,0-.88-.25c-.11,0-.25-.06-.32.06s0,.22.12.3c.82.82,1.59,1.7,2.47,2.48,2.18,1.93,4.47,3.72,6.67,5.62a1.6,1.6,0,0,1,.59.62l.19.15a.67.67,0,0,1,.48.47l.13.19c.16.08.2.21.06.31a.35.35,0,0,1-.5-.09.08.08,0,0,1-.08,0,26.84,26.84,0,0,1-4.1-1.83,35.87,35.87,0,0,1-4.94-3,5.62,5.62,0,0,0-.77-.4c-.15-.06-.33-.24-.46,0s.1.31.2.43a9.37,9.37,0,0,1,1.16,1.36l.23.25a1.9,1.9,0,0,1,.7.65l.25.24a2.54,2.54,0,0,1,.86.8l.25.25a.48.48,0,0,1,.38.44l.4.48a3.22,3.22,0,0,1,1.35,1.44c.37.72.22.8.54,1s.44.17.46.46a.89.89,0,0,1-.62,0c-.36-.08-.3.22-.38.37s.12.23.24.32c.38.28.92.1,1.38.57a13.56,13.56,0,0,1-2.43.09,1.76,1.76,0,0,0-1.47.5c-.06.06-.16.14-.16.21s.17.14.27.15c.42,0,.84,0,1.26,0a.56.56,0,0,1,.64.4,11.11,11.11,0,0,0-5.24,1.27c1.16.1,2.27-.13,3.44-.1a3.1,3.1,0,0,1-1.4.44,11.74,11.74,0,0,1-3,.35c-.06,0-.15,0-.16,0-.38.8-1,.14-1.44.19-.25,0-.53-.18-.75.09a.2.2,0,0,0,0,.07,8.22,8.22,0,0,0,1.83.62,4.57,4.57,0,0,1-1.28,0c-1.06-.2-2.13-.36-3.19-.54-.53-.09-1,.32-1.56.11.07.33.26.3.39.31a22.66,22.66,0,0,0,2.33.21A2.88,2.88,0,0,1,6.2,30h0l.08,0s0,0,0,0L6.22,30h0c-.71.05-1.36-.32-2.08-.28-.26,0-.53-.1-.79-.09-.49,0-1-.3-1.47.08-.26.18-.75,0-1.12-.11a.85.85,0,0,0-.74,0c.68.36,1.5.38,1.9,1.08a.27.27,0,0,1,.41,0,.36.36,0,0,1-.41,0c-.34.11-.68-.05-1.11,0a2.88,2.88,0,0,0,1.34.26,10.29,10.29,0,0,1,3,.82A6.06,6.06,0,0,0,6.76,32,1.69,1.69,0,0,1,7.1,32l5.81-.85.07,0A34.61,34.61,0,0,1,18.4,30,28.82,28.82,0,0,0,25,28.64a6.7,6.7,0,0,1,1.2-.23l-.16.23c-.83,1.15,0,.69.69.07a1.81,1.81,0,0,1,.09.31l.16-.29c.14.8.32,1.55.47,2.18a1.56,1.56,0,0,0-1,.2c-.6.41-1.45-.5-2,0s.44,1.53,1.59,2.52a5.22,5.22,0,0,0,3,1.69,35.38,35.38,0,0,0,3.65,4.92c.34.46.68.87,1,1.26A9.79,9.79,0,0,0,32,41.35c-1.17,0-2.7-.54-3.72-.22s-.25.49-1.56,1.45-.56,1.46.51,1.23,4.11,1,5.18,1.11a11.47,11.47,0,0,0,4.43-.19,64.42,64.42,0,0,0,6.63,5.36,7.36,7.36,0,0,0,2.14,1.1,4.58,4.58,0,0,0,2,.29,3.69,3.69,0,0,0,2.71-1.62,4.48,4.48,0,0,0,.06-2.49c-.23-2-.79-2.77-.58-3.87a1.87,1.87,0,0,0,0-.87,2.1,2.1,0,0,0-.63-1c-.7-.65-.91-1.79-1.28-3.12,0-.2-.11-.4-.17-.59,1.56-2.11,3.77-4.67,4-5.51A2,2,0,0,0,51.4,30.33ZM19.19,1.05v0l0,0ZM19,1.82a1.86,1.86,0,0,1-1.08-.45A1.34,1.34,0,0,1,19,1.81c.11,0,.21,0,.26.15C19.08,2,19,1.87,19,1.82Z"/><path class="cls-1" d="M75.75,17.51,70,7.93v9.59H67.3L67.28,3h3l5.29,8.89V3h2.59l0,14.53Z"/><path class="cls-1" d="M80.59,17.5,80.57,3h3l0,14.53Z"/><path class="cls-1" d="M89.1,17.49l0-12.06h-4V3h11V5.42H92l0,12.06Z"/><path class="cls-1" d="M97.36,19.33A10.54,10.54,0,0,0,98,18.26a5.27,5.27,0,0,0,.36-1,1.5,1.5,0,0,1-.65-.62,1.69,1.69,0,0,1-.21-.81A1.49,1.49,0,0,1,98,14.76a1.62,1.62,0,0,1,1.15-.46,1.37,1.37,0,0,1,1.14.5,1.76,1.76,0,0,1,.42,1.18,5.52,5.52,0,0,1-1.51,3.34Z"/><path class="cls-1" d="M116.83,17.45,111,7.87v9.59h-2.66l0-14.53h3l5.29,8.9,0-8.91h2.6l0,14.53Z"/><path class="cls-1" d="M131.44,12.49a6.83,6.83,0,0,1-.35,2.28,4.3,4.3,0,0,1-1,1.62,4.08,4.08,0,0,1-1.57,1,6.42,6.42,0,0,1-2.07.33,5.18,5.18,0,0,1-2.16-.43,4.72,4.72,0,0,1-1.61-1.16,5.1,5.1,0,0,1-1-1.75,6.81,6.81,0,0,1-.34-2.2,5.6,5.6,0,0,1,.34-2,4.22,4.22,0,0,1,2.44-2.52A5.16,5.16,0,0,1,126,7.27a3.87,3.87,0,0,1,1.77.36,3.8,3.8,0,0,1,1.14.86v-1h2.49Zm-5,3a2.12,2.12,0,0,0,1.68-.75,3.49,3.49,0,0,0,.62-2.25,3.42,3.42,0,0,0-.63-2.24,2,2,0,0,0-1.68-.74,2.08,2.08,0,0,0-1.68.75,3.46,3.46,0,0,0-.62,2.24,3.4,3.4,0,0,0,.63,2.24A2.06,2.06,0,0,0,126.46,15.47Z"/><path class="cls-1" d="M133.83,17.43V11.74a4.21,4.21,0,0,1,1.31-3.31,5.2,5.2,0,0,1,3.63-1.18h.58l.44,0,.39,0,.41,0v2.2l-.79-.1a7,7,0,0,0-.75,0,2.6,2.6,0,0,0-1.76.55,2,2,0,0,0-.64,1.63v5.79Z"/><path class="cls-1" d="M151.82,12.46a6.58,6.58,0,0,1-.35,2.28,4.24,4.24,0,0,1-1,1.63,4.1,4.1,0,0,1-1.58,1,6.1,6.1,0,0,1-2.06.33,5.27,5.27,0,0,1-2.16-.42,4.66,4.66,0,0,1-1.61-1.16,5.08,5.08,0,0,1-1-1.76,6.81,6.81,0,0,1-.35-2.2,5.63,5.63,0,0,1,.34-2,4.47,4.47,0,0,1,1-1.54,4.34,4.34,0,0,1,1.49-1,5.09,5.09,0,0,1,1.92-.34,3.86,3.86,0,0,1,1.76.36,3.8,3.8,0,0,1,1.14.86v-1h2.49Zm-5,3a2.06,2.06,0,0,0,1.68-.75,3.43,3.43,0,0,0,.62-2.25,3.48,3.48,0,0,0-.62-2.24,2.11,2.11,0,0,0-1.69-.74,2.08,2.08,0,0,0-1.68.75,3.46,3.46,0,0,0-.62,2.24,3.46,3.46,0,0,0,.63,2.24A2.08,2.08,0,0,0,146.84,15.44Z"/><path class="cls-1" d="M169.47,17.38a9.81,9.81,0,0,1-1.15.17,11.69,11.69,0,0,1-1.32.08,11.53,11.53,0,0,1-3.05-.39A6.78,6.78,0,0,1,161.46,16a5.9,5.9,0,0,1-1.68-2.2,7.87,7.87,0,0,1-.61-3.28,9.13,9.13,0,0,1,.6-3.5,7,7,0,0,1,1.67-2.47,6.76,6.76,0,0,1,2.48-1.47,9.37,9.37,0,0,1,3-.48,11.2,11.2,0,0,1,1.3.07c.42.05.8.11,1.13.18V5.34a6.36,6.36,0,0,0-1-.2,9.09,9.09,0,0,0-1.25-.07,5.06,5.06,0,0,0-3.69,1.29,5.41,5.41,0,0,0-1.33,4.05A4.52,4.52,0,0,0,163.49,14a5.55,5.55,0,0,0,3.74,1.13,9.21,9.21,0,0,0,1.26-.08,6.31,6.31,0,0,0,1-.19Z"/><path class="cls-1" d="M176.45,17.62a5.66,5.66,0,0,1-2.08-.38,4.92,4.92,0,0,1-1.65-1.08,4.8,4.8,0,0,1-1.09-1.65,5.35,5.35,0,0,1-.4-2.1,5.44,5.44,0,0,1,.39-2.09,4.86,4.86,0,0,1,2.74-2.74,5.56,5.56,0,0,1,2.07-.38,5.27,5.27,0,0,1,2.08.38,5,5,0,0,1,1.65,1.07,5.16,5.16,0,0,1,1.09,1.65,5.78,5.78,0,0,1,0,4.2,5.16,5.16,0,0,1-1.09,1.65,4.92,4.92,0,0,1-1.65,1.08A5.45,5.45,0,0,1,176.45,17.62Zm0-2.22a2.25,2.25,0,0,0,1.75-.75,3.43,3.43,0,0,0,.64-2.25,3.42,3.42,0,0,0-.65-2.24,2.42,2.42,0,0,0-3.49,0,3.35,3.35,0,0,0-.64,2.24,3.35,3.35,0,0,0,.65,2.24A2.18,2.18,0,0,0,176.44,15.4Z"/><path class="cls-1" d="M183.81,17.36l0-14.53h2.83l0,14.53Z"/><path class="cls-1" d="M189.13,17.35l0-14.53h2.82l0,14.53Z"/><path class="cls-1" d="M204.09,17.29l-.49.09c-.2,0-.44.07-.73.1l-1,.07q-.6,0-1.41,0a11.18,11.18,0,0,1-2.56-.27,5.64,5.64,0,0,1-2-.9,4.15,4.15,0,0,1-1.3-1.64,6.15,6.15,0,0,1-.46-2.49,4.85,4.85,0,0,1,.39-1.92,5.24,5.24,0,0,1,1.11-1.63,5.51,5.51,0,0,1,1.71-1.14,5.71,5.71,0,0,1,2.22-.43,5.77,5.77,0,0,1,1.78.27,4.1,4.1,0,0,1,1.47.83,3.9,3.9,0,0,1,1,1.42,5.12,5.12,0,0,1,.38,2.06v.44c0,.17,0,.33,0,.48h-7.39a2.84,2.84,0,0,0,.36,1.26,2,2,0,0,0,.78.79,3.32,3.32,0,0,0,1.21.4,9.49,9.49,0,0,0,1.58.12,21.32,21.32,0,0,0,2.2-.1,7.4,7.4,0,0,0,1.2-.2Zm-2.77-6.45a1.69,1.69,0,0,0-.45-1.18,1.86,1.86,0,0,0-1.4-.48,2.56,2.56,0,0,0-1.55.45,2.48,2.48,0,0,0-.91,1.21Z"/><path class="cls-1" d="M213.29,16.38a3,3,0,0,1-1.15.68,4.79,4.79,0,0,1-1.42.22A5.3,5.3,0,0,1,208.8,17a4.4,4.4,0,0,1-1.49-.94,4.23,4.23,0,0,1-1-1.49,5.29,5.29,0,0,1-.34-2,6.53,6.53,0,0,1,.34-2.14,5,5,0,0,1,1-1.71,4.46,4.46,0,0,1,1.54-1.13,4.83,4.83,0,0,1,2-.42A6.1,6.1,0,0,1,213,7.5a4.62,4.62,0,0,1,1.65,1,4.47,4.47,0,0,1,1.06,1.63,6.2,6.2,0,0,1,.38,2.19v5a5.81,5.81,0,0,1-.4,2.28,3.74,3.74,0,0,1-1.18,1.53,5.16,5.16,0,0,1-1.89.88,10.06,10.06,0,0,1-2.5.28c-.73,0-1.35,0-1.87-.07a9.5,9.5,0,0,1-1.2-.17V19.82a8.72,8.72,0,0,0,1.13.17c.5.05,1.06.07,1.67.07a4.1,4.1,0,0,0,2.63-.66,2.62,2.62,0,0,0,.79-2.15Zm-2.16-1.32a2.15,2.15,0,0,0,1.68-.72,3.2,3.2,0,0,0,.62-2.13,3.15,3.15,0,0,0-.63-2.13,2.12,2.12,0,0,0-1.68-.71,2.09,2.09,0,0,0-1.68.72,3.18,3.18,0,0,0-.62,2.13,3.1,3.1,0,0,0,.63,2.12A2.09,2.09,0,0,0,211.13,15.06Z"/><path class="cls-1" d="M228.26,17.25l-.5.1-.73.09-1,.08q-.6,0-1.41,0a10.68,10.68,0,0,1-2.56-.28,5.38,5.38,0,0,1-2-.9,4.08,4.08,0,0,1-1.3-1.64,6.25,6.25,0,0,1-.46-2.49,4.76,4.76,0,0,1,.4-1.92,5.15,5.15,0,0,1,1.1-1.63,5.57,5.57,0,0,1,3.94-1.56,5.75,5.75,0,0,1,1.77.27,4.08,4.08,0,0,1,1.48.83,3.91,3.91,0,0,1,1,1.42,5.12,5.12,0,0,1,.38,2.06v.44c0,.16,0,.32,0,.47h-7.39a2.84,2.84,0,0,0,.36,1.27,2.14,2.14,0,0,0,.79.79,3.39,3.39,0,0,0,1.2.4,9.56,9.56,0,0,0,1.58.11,21.75,21.75,0,0,0,2.2-.09,8.46,8.46,0,0,0,1.2-.2Zm-2.77-6.45A1.66,1.66,0,0,0,225,9.63a1.81,1.81,0,0,0-1.39-.49,2.57,2.57,0,0,0-1.56.45,2.61,2.61,0,0,0-.91,1.22Z"/><path class="cls-1" d="M68,45.46a14.78,14.78,0,0,0,2.5.38c.92.07,1.9.1,3,.1a13.27,13.27,0,0,0,5.09-.75,2.76,2.76,0,0,0,1.7-2.74A2.11,2.11,0,0,0,79.73,41,4.52,4.52,0,0,0,78.42,40a12.42,12.42,0,0,0-1.92-.83l-2.23-.8c-.77-.28-1.52-.59-2.25-.92a9.85,9.85,0,0,1-2-1.2,6.12,6.12,0,0,1-1.52-1.81A5.09,5.09,0,0,1,68,31.9a5.9,5.9,0,0,1,.82-3.16A6.52,6.52,0,0,1,71,26.52a10.83,10.83,0,0,1,3.35-1.29,19.37,19.37,0,0,1,4.15-.43c.81,0,1.61,0,2.39.09a17.44,17.44,0,0,1,2.35.32v4.15a22.41,22.41,0,0,0-4.57-.44,13.62,13.62,0,0,0-4.5.61,2.18,2.18,0,0,0-1.67,2.12,1.81,1.81,0,0,0,.77,1.49,9.21,9.21,0,0,0,1.95,1.12c.56.25,1.15.5,1.78.73s1.27.48,1.92.74,1.28.56,1.89.87a13.63,13.63,0,0,1,1.71,1.07,6.22,6.22,0,0,1,1.76,2A5.79,5.79,0,0,1,85,42.51a6.44,6.44,0,0,1-1.09,3.92,7.4,7.4,0,0,1-2.77,2.29,12.14,12.14,0,0,1-3.7,1.07,29.52,29.52,0,0,1-3.9.27q-1.33,0-2.79-.09A18.91,18.91,0,0,1,68,49.65Z"/><path class="cls-1" d="M104.24,49.6l-3.36-9.42-3.3,9.43H93.15l-7-24.4h5.23l4.73,18,2.82-8-3.89-10h4.47l1.4,4.53,1.42-4.53h4.29L102.93,35l2.94,8.19,4.62-18h5.05l-6.87,24.42Z"/><path class="cls-1" d="M118,49.58l0-24.41h5l0,24.41Z"/><path class="cls-1" d="M144.14,49.54l0-16.11-6.26,11.86-6.23-11.84,0,16.11h-4.6l0-24.41h5.23l5.66,10.9,5.64-10.92h5l0,24.41Z"/><path class="cls-1" d="M169.77,49.5l0-16.11-6.26,11.87-6.23-11.85,0,16.11h-4.61l0-24.41h5.23L163.54,36l5.64-10.93h5l0,24.41Z"/><path class="cls-1" d="M178.38,49.49l0-24.41h5l0,24.42Z"/><path class="cls-1" d="M201.61,49.46l-9.75-16.1,0,16.11h-4.46l0-24.41h5l8.88,15,0-15h4.36l0,24.41Z"/><path class="cls-1" d="M217.84,36.78v-4h9A7.31,7.31,0,0,1,227.9,35a14.18,14.18,0,0,1,.51,4.27,14.67,14.67,0,0,1-.5,3.84,9.53,9.53,0,0,1-1.62,3.36,8.06,8.06,0,0,1-3,2.41,9.9,9.9,0,0,1-4.49.93,8.21,8.21,0,0,1-3.91-.93,9.52,9.52,0,0,1-3.06-2.56,12.38,12.38,0,0,1-2-3.76,14.33,14.33,0,0,1-.72-4.59,17.29,17.29,0,0,1,.85-5.65,11.53,11.53,0,0,1,2.47-4.21,10.5,10.5,0,0,1,4-2.63,14.58,14.58,0,0,1,5.34-.92,14.84,14.84,0,0,1,2.21.16c.73.1,1.38.21,1.94.32v4.15a13.23,13.23,0,0,0-1.69-.32,15.3,15.3,0,0,0-2.28-.16,10.57,10.57,0,0,0-3.18.46,5.65,5.65,0,0,0-2.44,1.54,7.46,7.46,0,0,0-1.58,2.86,14.57,14.57,0,0,0-.57,4.39,10.12,10.12,0,0,0,1.37,5.76,4.45,4.45,0,0,0,5.58,1.51,4.29,4.29,0,0,0,1.46-1.21,5.63,5.63,0,0,0,.93-1.83,7.48,7.48,0,0,0,.32-2.32,8.91,8.91,0,0,0-.16-1.95,5.17,5.17,0,0,0-.4-1.19Z"/><path class="cls-1" d="M245.86,49.4l0-20.26h-6.76V25l18.49,0v4.15h-6.76l0,20.26Z"/><path class="cls-1" d="M260.16,49.38l0-24.41,16.25,0v4.15l-11.3,0V32h11v3.94h-11l0,9.28h11.37v4.15Z"/><path class="cls-1" d="M278,49.35l8.54-24.42h4.36l8.61,24.4Zm10.68-17.62-4.24,13.46h8.48Z"/><path class="cls-1" d="M318.78,49.3l0-16.12L312.5,45.05,306.28,33.2l0,16.11h-4.61l0-24.41h5.23l5.67,10.91,5.63-10.92h5.06l0,24.41Z"/></g></g></svg>