<svg viewBox="0 0 65 65" xmlns="http://www.w3.org/2000/svg"><path d="m0 0h65v65h-65z" fill="none"/><path d="m21.37 56.88c22.64 0 35-18.76 35-35 0-.54 0-1.07 0-1.6a25 25 0 0 0 6.14-6.37 24.51 24.51 0 0 1 -7.07 1.94 12.36 12.36 0 0 0 5.4-6.85 24.61 24.61 0 0 1 -7.84 3 12.32 12.32 0 0 0 -21 11.23 35 35 0 0 1 -25.32-12.86 12.33 12.33 0 0 0 3.81 16.44 12.3 12.3 0 0 1 -5.59-1.54v.15a12.31 12.31 0 0 0 9.88 12.07 12.3 12.3 0 0 1 -5.56.21 12.31 12.31 0 0 0 11.5 8.55 24.67 24.67 0 0 1 -15.29 5.28 23.88 23.88 0 0 1 -2.93-.18 34.87 34.87 0 0 0 18.87 5.52" fill="#1da1f2"/></svg>