<svg xmlns="http://www.w3.org/2000/svg" viewBox="0 0 92 4"><defs><style>.cls-1{fill:#252d65;}</style></defs><title>wave_blue</title><g id="レイヤー_2" data-name="レイヤー 2"><g id="レイヤー_2-2" data-name="レイヤー 2"><path class="cls-1" d="M80.49,4a11.23,11.23,0,0,1-6-1.56,11.3,11.3,0,0,0-11,0,11.2,11.2,0,0,1-6,1.56,11.2,11.2,0,0,1-6-1.56A10.3,10.3,0,0,0,46,1a10.3,10.3,0,0,0-5.52,1.44,11.2,11.2,0,0,1-6,1.56,11.2,11.2,0,0,1-6-1.56A10.26,10.26,0,0,0,23,1a10.28,10.28,0,0,0-5.52,1.44A11.2,11.2,0,0,1,11.5,4a11.17,11.17,0,0,1-6-1.56A10.3,10.3,0,0,0,0,1V0A11.2,11.2,0,0,1,6,1.56,10.3,10.3,0,0,0,11.5,3,10.33,10.33,0,0,0,17,1.56,11.17,11.17,0,0,1,23,0a11.23,11.23,0,0,1,6,1.56A10.26,10.26,0,0,0,34.49,3,10.3,10.3,0,0,0,40,1.56,11.2,11.2,0,0,1,46,0a11.2,11.2,0,0,1,6,1.56A10.3,10.3,0,0,0,57.49,3,10.3,10.3,0,0,0,63,1.56a12.24,12.24,0,0,1,12,0A10.33,10.33,0,0,0,80.49,3,10.34,10.34,0,0,0,86,1.56,11.17,11.17,0,0,1,92,0V1a10.3,10.3,0,0,0-5.52,1.44A11.24,11.24,0,0,1,80.49,4Z"/></g></g></svg>