<svg viewBox="0 0 92 4" xmlns="http://www.w3.org/2000/svg"><path d="m80.49 4a11.23 11.23 0 0 1 -6-1.56 11.3 11.3 0 0 0 -11 0 11.2 11.2 0 0 1 -6 1.56 11.2 11.2 0 0 1 -6-1.56 10.3 10.3 0 0 0 -5.49-1.44 10.3 10.3 0 0 0 -5.52 1.44 11.2 11.2 0 0 1 -6 1.56 11.2 11.2 0 0 1 -6-1.56 10.26 10.26 0 0 0 -5.48-1.44 10.28 10.28 0 0 0 -5.52 1.44 11.2 11.2 0 0 1 -5.98 1.56 11.17 11.17 0 0 1 -6-1.56 10.3 10.3 0 0 0 -5.5-1.44v-1a11.2 11.2 0 0 1 6 1.56 10.3 10.3 0 0 0 5.5 1.44 10.33 10.33 0 0 0 5.5-1.44 11.17 11.17 0 0 1 6-1.56 11.23 11.23 0 0 1 6 1.56 10.26 10.26 0 0 0 5.49 1.44 10.3 10.3 0 0 0 5.51-1.44 11.2 11.2 0 0 1 6-1.56 11.2 11.2 0 0 1 6 1.56 10.3 10.3 0 0 0 5.49 1.44 10.3 10.3 0 0 0 5.51-1.44 12.24 12.24 0 0 1 12 0 10.33 10.33 0 0 0 5.49 1.44 10.34 10.34 0 0 0 5.51-1.44 11.17 11.17 0 0 1 6-1.56v1a10.3 10.3 0 0 0 -5.52 1.44 11.24 11.24 0 0 1 -5.99 1.56z" fill="#fff"/></svg>