<svg xmlns="http://www.w3.org/2000/svg" viewBox="0 0 31.99 26.99"><defs><style>.cls-1{fill:#252d65;}</style></defs><title>back</title><g id="レイヤー_2" data-name="レイヤー 2"><g id="レイヤー_3" data-name="レイヤー 3"><path class="cls-1" d="M28.47,10H11.8l3.86-4a3.52,3.52,0,1,0-5.07-4.88L1,11.06c-.07.07-.12.15-.18.22s-.15.18-.22.28a3.37,3.37,0,0,0-.17.32c0,.1-.11.19-.15.28s-.08.26-.12.39a2.5,2.5,0,0,0-.07.26,3.51,3.51,0,0,0,0,1.37,2.68,2.68,0,0,0,.07.27c0,.13.07.25.12.38a2.49,2.49,0,0,0,.15.28,2,2,0,0,0,.17.32c.07.1.15.19.22.28s.11.16.18.23l9.61,10A3.52,3.52,0,1,0,15.66,21L11.8,17H28.47a3.52,3.52,0,0,0,0-7Z"/></g></g></svg>