<svg xmlns="http://www.w3.org/2000/svg" viewBox="0 0 65 65"><defs><style>.cls-1{fill:none;}.cls-2{fill:#1da1f2;}</style></defs><title>twitter</title><g id="レイヤー_2" data-name="レイヤー 2"><g id="レイヤー_1-2" data-name="レイヤー 1"><rect class="cls-1" width="65" height="65"/><path class="cls-2" d="M21.37,56.88c22.64,0,35-18.76,35-35,0-.54,0-1.07,0-1.6a25,25,0,0,0,6.14-6.37,24.51,24.51,0,0,1-7.07,1.94A12.36,12.36,0,0,0,60.84,9,24.61,24.61,0,0,1,53,12a12.32,12.32,0,0,0-21,11.23A35,35,0,0,1,6.68,10.37a12.33,12.33,0,0,0,3.81,16.44A12.3,12.3,0,0,1,4.9,25.27v.15a12.31,12.31,0,0,0,9.88,12.07,12.3,12.3,0,0,1-5.56.21,12.31,12.31,0,0,0,11.5,8.55A24.67,24.67,0,0,1,5.43,51.53a23.88,23.88,0,0,1-2.93-.18,34.87,34.87,0,0,0,18.87,5.52"/></g></g></svg>