<svg viewBox="0 0 176.77 125.25" xmlns="http://www.w3.org/2000/svg"><g fill="#525566"><path d="m86 98.55v-31.41l-.38-.75q-17.73-.39-22.05-.39-23.32.19-23.32.57l.37.37v30.85a65.37 65.37 0 0 0 1.51 15.8q.38 1.32 5.17 3a24.62 24.62 0 0 0 6.49 1.69q.75 0 .84 2.82a10.1 10.1 0 0 1 -.47 4.14q-.94 0-11.56-.75t-15.52-.75q-4.89 0-14.2.66c-6.2.43-10.25.72-12.13.84-.5-.5-.75-1.56-.75-3.19 0-2.51.12-3.77.38-3.77a27.76 27.76 0 0 0 7.14-1.5q4.89-1.5 5.46-3 1.3-5.07 1.31-15.23v-71.84q0-11.48-1.29-14.71-1-2-5.29-3.54a22.16 22.16 0 0 0 -6.58-1.46c-.5 0-.75-1.29-.75-3.8 0-1.88.12-2.95.37-3.2l26.14 1.13q4.89 0 27.46-1.13a8.85 8.85 0 0 1 .57 4c0 2-.26 3-.76 3a26.83 26.83 0 0 0 -6.58 1.6c-3.26 1.06-5.08 2-5.45 2.91-1 2.63-1.51 8-1.51 16v26.7l.38.57q18.42.38 22.57.37 5.07 0 22-.37a1.09 1.09 0 0 0 .43-.78v-27.29q0-9.78-1.32-14.86-.57-1.5-5.17-3.2a22.37 22.37 0 0 0 -6.73-1.65c-.5 0-.78-1-.84-3.1s.15-3.4.65-3.9q26 1.13 28 1.13 2.85 0 25.41-1.13a10.85 10.85 0 0 1 .56 3.39c0 2.38-.32 3.57-.94 3.57a26.72 26.72 0 0 0 -6.58 1.6c-3.27 1.06-5 2-5.27 2.91q-1.5 5.64-1.5 16v70.32c0 6.77.5 12.11 1.5 16 .25.88 2 1.82 5.17 2.82a27 27 0 0 0 6.49 1.51c.5 0 .75 1.31.75 4a10 10 0 0 1 -.56 3.19q-1.69 0-11.1-.75t-14.29-.75q-5.08 0-15.33.66c-6.83.43-11.06.72-12.69.84-.5-.5-.72-1.78-.66-3.85s.34-3.11.85-3.11a25 25 0 0 0 7-1.69c3.26-1.13 5.08-2.19 5.46-3.2q1.09-4.38 1.14-14.91z"/><path d="m136.83 55a3.58 3.58 0 0 1 -1.46-1.52 4 4 0 0 1 -.62-1.81 3 3 0 0 1 .27-1.66q7.08-4.57 14.7-9.29t12.14-7.28a45.65 45.65 0 0 1 4.78-2.57h.28c.74 0 1.29.88 1.66 2.64q-1.25 4-1.24 13v55.61a40.13 40.13 0 0 0 1.1 10c.19.65 1.37 1.37 3.54 2.15a16.39 16.39 0 0 0 4.37 1.18c.28 0 .42 1 .42 2.92a5.83 5.83 0 0 1 -.28 2.21q-1.53-.13-8.25-.62c-4.49-.32-7.79-.49-9.92-.49s-5.48.17-10 .49-7.33.53-8.25.62c-.37-.37-.56-1.31-.56-2.84s.19-2.29.56-2.29a15.75 15.75 0 0 0 4.85-1.25c2.22-.83 3.42-1.61 3.61-2.35a33.22 33.22 0 0 0 .83-7.91v-46.54q0-6.93-2.78-6.93-2.12 0-9.75 4.53z"/></g></svg>