<svg xmlns="http://www.w3.org/2000/svg" viewBox="0 0 194.52 125.25"><defs><style>.cls-1{fill:#525566;}</style></defs><title>h2</title><g id="レイヤー_2" data-name="レイヤー 2"><g id="レイヤー_3" data-name="レイヤー 3"><path class="cls-1" d="M86,98.55V67.14l-.38-.75Q67.89,66,63.57,66q-23.32.19-23.32.57l.37.37V97.79a65.37,65.37,0,0,0,1.51,15.8q.38,1.32,5.17,3a24.62,24.62,0,0,0,6.49,1.69q.75,0,.84,2.82a10.1,10.1,0,0,1-.47,4.14q-.94,0-11.56-.75t-15.52-.75q-4.89,0-14.2.66c-6.2.43-10.25.72-12.13.84-.5-.5-.75-1.56-.75-3.19,0-2.51.12-3.77.38-3.77a27.76,27.76,0,0,0,7.14-1.5q4.89-1.5,5.46-3,1.3-5.07,1.31-15.23V26.71Q14.29,15.23,13,12,12,10,7.71,8.46A22.16,22.16,0,0,0,1.13,7C.63,7,.38,5.71.38,3.2.38,1.32.5.25.75,0L26.89,1.13q4.89,0,27.46-1.13a8.85,8.85,0,0,1,.57,4c0,2-.26,3-.76,3a26.83,26.83,0,0,0-6.58,1.6c-3.26,1.06-5.08,2-5.45,2.91-1,2.63-1.51,8-1.51,16v26.7l.38.57q18.42.38,22.57.37,5.07,0,22-.37A1.09,1.09,0,0,0,86,54V26.71q0-9.78-1.32-14.86-.57-1.5-5.17-3.2A22.37,22.37,0,0,0,72.78,7c-.5,0-.78-1-.84-3.1S72.09.5,72.59,0q26,1.13,28,1.13Q103.44,1.13,126,0a10.85,10.85,0,0,1,.56,3.39c0,2.38-.32,3.57-.94,3.57a26.72,26.72,0,0,0-6.58,1.6c-3.27,1.06-5,2-5.27,2.91q-1.5,5.64-1.5,16V97.79c0,6.77.5,12.11,1.5,16,.25.88,2,1.82,5.17,2.82a27,27,0,0,0,6.49,1.51c.5,0,.75,1.31.75,4a10,10,0,0,1-.56,3.19q-1.69,0-11.1-.75t-14.29-.75q-5.08,0-15.33.66c-6.83.43-11.06.72-12.69.84-.5-.5-.72-1.78-.66-3.85s.34-3.11.85-3.11a25,25,0,0,0,7-1.69c3.26-1.13,5.08-2.19,5.46-3.2Q85.95,109.08,86,98.55Z"/><path class="cls-1" d="M164,31.05a24,24,0,0,1,17.12,6.45Q188,43.95,188,54.9a34.79,34.79,0,0,1-1.11,8.74,31.06,31.06,0,0,1-4.23,9.08q-3.12,4.78-5.2,7.77A72.62,72.62,0,0,1,169.83,89q-5.55,5.55-7.56,7.42c-1.34,1.24-4.32,4-8.94,8.25a.71.71,0,0,0-.14.76.64.64,0,0,0,.69.48H177.6a11,11,0,0,0,5-1,7.72,7.72,0,0,0,3.33-3.25,26.46,26.46,0,0,0,1.8-3.75c.37-1,.78-2.45,1.25-4.3.18-.64,1-1,2.36-1a5.31,5.31,0,0,1,3.19.83q-2.79,11.79-5.41,24.69c-.19,1.29-.74,1.94-1.67,1.94H136.69A7.08,7.08,0,0,1,135,115.5a207.39,207.39,0,0,0,23.44-31.27q10.13-16.56,10.12-26.69a17.62,17.62,0,0,0-3.19-10.47,10,10,0,0,0-8.59-4.51A15.93,15.93,0,0,0,146,47a37.6,37.6,0,0,0-2.77,3.47l-1.39,1.94a4.69,4.69,0,0,1-2.57-1,3,3,0,0,1-1.45-2.43,30.41,30.41,0,0,1,2.91-5.06,48,48,0,0,1,4.92-5.76A23.14,23.14,0,0,1,153.54,33,27.67,27.67,0,0,1,164,31.05Z"/></g></g></svg>