<svg viewBox="0 0 191.46 125.25" xmlns="http://www.w3.org/2000/svg"><g fill="#525566"><path d="m86 98.55v-31.41l-.38-.75q-17.73-.39-22.05-.39-23.32.19-23.32.57l.37.37v30.85a65.37 65.37 0 0 0 1.51 15.8q.38 1.32 5.17 3a24.62 24.62 0 0 0 6.49 1.69q.75 0 .84 2.82a10.1 10.1 0 0 1 -.47 4.14q-.94 0-11.56-.75t-15.52-.75q-4.89 0-14.2.66c-6.2.43-10.25.72-12.13.84-.5-.5-.75-1.56-.75-3.19 0-2.51.12-3.77.38-3.77a27.76 27.76 0 0 0 7.14-1.5q4.89-1.5 5.46-3 1.3-5.07 1.31-15.23v-71.84q0-11.48-1.29-14.71-1-2-5.29-3.54a22.16 22.16 0 0 0 -6.58-1.46c-.5 0-.75-1.29-.75-3.8 0-1.88.12-2.95.37-3.2l26.14 1.13q4.89 0 27.46-1.13a8.85 8.85 0 0 1 .57 4c0 2-.26 3-.76 3a26.83 26.83 0 0 0 -6.58 1.6c-3.26 1.06-5.08 2-5.45 2.91-1 2.63-1.51 8-1.51 16v26.7l.38.57q18.42.38 22.57.37 5.07 0 22-.37a1.09 1.09 0 0 0 .43-.78v-27.29q0-9.78-1.32-14.86-.57-1.5-5.17-3.2a22.37 22.37 0 0 0 -6.73-1.65c-.5 0-.78-1-.84-3.1s.15-3.4.65-3.9q26 1.13 28 1.13 2.85 0 25.41-1.13a10.85 10.85 0 0 1 .56 3.39c0 2.38-.32 3.57-.94 3.57a26.72 26.72 0 0 0 -6.58 1.6c-3.27 1.06-5 2-5.27 2.91q-1.5 5.64-1.5 16v70.32c0 6.77.5 12.11 1.5 16 .25.88 2 1.82 5.17 2.82a27 27 0 0 0 6.49 1.51c.5 0 .75 1.31.75 4a10 10 0 0 1 -.56 3.19q-1.69 0-11.1-.75t-14.29-.75q-5.08 0-15.33.66c-6.83.43-11.06.72-12.69.84-.5-.5-.72-1.78-.66-3.85s.34-3.11.85-3.11a25 25 0 0 0 7-1.69c3.26-1.13 5.08-2.19 5.46-3.2q1.09-4.38 1.14-14.91z"/><path d="m167.06 31.05a17.39 17.39 0 0 1 10.88 4.09q5.2 4.09 5.2 11.86a21.73 21.73 0 0 1 -3.88 12.41 27.68 27.68 0 0 1 -7.9 8.25q5.4 0 12.75 6.52a20.8 20.8 0 0 1 7.35 16.22q0 13.74-11.92 22a45.52 45.52 0 0 1 -26.49 8.25 29.46 29.46 0 0 1 -16.22-4.71 11.46 11.46 0 0 1 -.83-4 12.4 12.4 0 0 1 1.31-5.76 4.65 4.65 0 0 1 4.51-2.56q4 0 7.77 5a12.26 12.26 0 0 0 19.69-.21q3.47-5.06 3.46-14.35 0-8-3.88-13.11a12.73 12.73 0 0 0 -10.68-5.06 49.49 49.49 0 0 0 -7.62.7 6.88 6.88 0 0 1 -1-4.16 5.15 5.15 0 0 1 .44-2.13q7.91-1.26 12.41-6.18a17.63 17.63 0 0 0 4.51-12.41q0-5.68-2.57-8.32a8 8 0 0 0 -5.89-2.63 16.59 16.59 0 0 0 -13 5.82 2.93 2.93 0 0 1 -2.08-1.38 4.05 4.05 0 0 1 -1.11-2.36 29.72 29.72 0 0 1 10.53-8.53 31.55 31.55 0 0 1 14.26-3.26z"/></g></svg>