<svg xmlns="http://www.w3.org/2000/svg" viewBox="0 0 190.22 125.25"><defs><style>.cls-1{fill:#525566;}</style></defs><title>h5</title><g id="レイヤー_2" data-name="レイヤー 2"><g id="レイヤー_3" data-name="レイヤー 3"><path class="cls-1" d="M86,98.55V67.14l-.38-.75Q67.89,66,63.57,66q-23.32.19-23.32.57l.37.37V97.79a65.37,65.37,0,0,0,1.51,15.8q.38,1.32,5.17,3a24.62,24.62,0,0,0,6.49,1.69q.75,0,.84,2.82a10.1,10.1,0,0,1-.47,4.14q-.94,0-11.56-.75t-15.52-.75q-4.89,0-14.2.66c-6.2.43-10.25.72-12.13.84-.5-.5-.75-1.56-.75-3.19,0-2.51.12-3.77.38-3.77a27.76,27.76,0,0,0,7.14-1.5q4.89-1.5,5.46-3,1.3-5.07,1.31-15.23V26.71Q14.29,15.23,13,12,12,10,7.71,8.46A22.16,22.16,0,0,0,1.13,7C.63,7,.38,5.71.38,3.2.38,1.32.5.25.75,0L26.89,1.13q4.89,0,27.46-1.13a8.85,8.85,0,0,1,.57,4c0,2-.26,3-.76,3a26.83,26.83,0,0,0-6.58,1.6c-3.26,1.06-5.08,2-5.45,2.91-1,2.63-1.51,8-1.51,16v26.7l.38.57q18.42.38,22.57.37,5.07,0,22-.37A1.09,1.09,0,0,0,86,54V26.71q0-9.78-1.32-14.86-.57-1.5-5.17-3.2A22.44,22.44,0,0,0,72.78,7c-.5,0-.78-1-.84-3.1S72.09.5,72.59,0q26,1.13,28,1.13Q103.44,1.13,126,0a10.58,10.58,0,0,1,.57,3.39c0,2.38-.32,3.57-.94,3.57a26.62,26.62,0,0,0-6.58,1.6c-3.27,1.06-5,2-5.27,2.91q-1.5,5.64-1.5,16V97.79c0,6.77.5,12.11,1.5,16q.38,1.32,5.17,2.82a27,27,0,0,0,6.49,1.51c.5,0,.75,1.31.75,4a10.27,10.27,0,0,1-.56,3.19q-1.69,0-11.1-.75t-14.29-.75q-5.08,0-15.33.66c-6.83.43-11.06.72-12.69.84-.51-.5-.72-1.78-.66-3.85s.34-3.11.85-3.11a25,25,0,0,0,7-1.69c3.26-1.13,5.08-2.19,5.46-3.2Q85.95,109.08,86,98.55Z"/><path class="cls-1" d="M147.37,31.61q32.16,0,35.22-.7a8.49,8.49,0,0,1,1.11,4.72q0,7.48-1.53,10.26-8,.28-14.42.35c-4.25,0-7.44.07-9.57.07h-4.3c-1.11.09-1.71.5-1.8,1.24L149.45,63a48.1,48.1,0,0,1,11.23-1.39q10.68,0,20.11,7.7t9.43,18.23q0,14.15-11.17,23.58T151.8,120.5a29.47,29.47,0,0,1-16.22-4.72,11.46,11.46,0,0,1-.83-4,12.43,12.43,0,0,1,1.31-5.76,4.65,4.65,0,0,1,4.51-2.56q4,0,7.77,5a11.44,11.44,0,0,0,9.7,4.85q7.08,0,10.27-5.68a26,26,0,0,0,3.19-12.9q0-9-4.65-14.56c-3.1-3.69-6.73-5.55-10.89-5.55-2,0-4,.1-5.75.28s-3.14.37-4,.56-1.78.41-2.71.69l-1.52.42a7.17,7.17,0,0,1-2.36-2q.14-.27,1.8-9.42t3.54-19.77Q146.82,34.8,147.37,31.61Z"/></g></g></svg>