<svg xmlns="http://www.w3.org/2000/svg" viewBox="0 0 128.97 154.8"><defs><style>.cls-1{fill:#525566;}</style></defs><title>img_width</title><g id="レイヤー_2" data-name="レイヤー 2"><g id="レイヤー_3" data-name="レイヤー 3"><path class="cls-1" d="M27.12,123.49h74.73a26.82,26.82,0,0,0,26.82-26.82V26.82A26.82,26.82,0,0,0,101.85,0H27.12A26.82,26.82,0,0,0,.3,26.82V96.67A26.82,26.82,0,0,0,27.12,123.49ZM15.3,26.82A11.83,11.83,0,0,1,27.12,15h74.73a11.83,11.83,0,0,1,11.82,11.82V96.67a11.84,11.84,0,0,1-11.82,11.82H27.12A11.84,11.84,0,0,1,15.3,96.67Z"/><path class="cls-1" d="M42.06,52.07A11.57,11.57,0,1,0,30.49,40.5,11.57,11.57,0,0,0,42.06,52.07Z"/><path class="cls-1" d="M30.79,97.69h67.4a3.79,3.79,0,0,0,3.65-4.78l-11.71-43a3.78,3.78,0,0,0-6.61-1.36L60.28,77.8,50.85,66.56a3.79,3.79,0,0,0-6,.29L27.67,91.75A3.79,3.79,0,0,0,30.79,97.69Z"/><polygon class="cls-1" points="119.97 129.51 119.97 137.66 9 137.66 9 129.51 0 129.51 0 154.8 9 154.8 9 146.66 119.97 146.66 119.97 154.8 128.97 154.8 128.97 129.51 119.97 129.51"/></g></g></svg>