<svg viewBox="0 0 128.97 154.8" xmlns="http://www.w3.org/2000/svg"><g fill="#525566"><path d="m27.12 123.49h74.73a26.82 26.82 0 0 0 26.82-26.82v-69.85a26.82 26.82 0 0 0 -26.82-26.82h-74.73a26.82 26.82 0 0 0 -26.82 26.82v69.85a26.82 26.82 0 0 0 26.82 26.82zm-11.82-96.67a11.83 11.83 0 0 1 11.82-11.82h74.73a11.83 11.83 0 0 1 11.82 11.82v69.85a11.84 11.84 0 0 1 -11.82 11.82h-74.73a11.84 11.84 0 0 1 -11.82-11.82z"/><path d="m42.06 52.07a11.57 11.57 0 1 0 -11.57-11.57 11.57 11.57 0 0 0 11.57 11.57z"/><path d="m30.79 97.69h67.4a3.79 3.79 0 0 0 3.65-4.78l-11.71-43a3.78 3.78 0 0 0 -6.61-1.36l-23.24 29.25-9.43-11.24a3.79 3.79 0 0 0 -6 .29l-17.18 24.9a3.79 3.79 0 0 0 3.12 5.94z"/><path d="m119.97 129.51v8.15h-110.97v-8.15h-9v25.29h9v-8.14h110.97v8.14h9v-25.29z"/></g></svg>