<svg xmlns="http://www.w3.org/2000/svg" viewBox="0 0 72.41 125.25"><defs><style>.cls-1{fill:#525566;}</style></defs><title>italic</title><g id="レイヤー_2" data-name="レイヤー 2"><g id="レイヤー_3" data-name="レイヤー 3"><path class="cls-1" d="M55.29,26.89,41.56,98.36a86.36,86.36,0,0,0-1.88,15q0,1.89,3.67,3.67a14.37,14.37,0,0,0,5.36,1.79c.25,0,.37.31.37.94a9.51,9.51,0,0,1-1.31,5.45c-.5,0-3.64-.22-9.4-.66s-10.16-.66-13.17-.66-7.8.22-14,.66-9.87.66-11,.66A2,2,0,0,1,0,124.12a18.41,18.41,0,0,1,.38-3.29c.25-1.32.5-2,.75-2a23.21,23.21,0,0,0,6.11-1.23q4-1.22,5-2.91,3-4.89,4.71-15.61l14.1-73a80.84,80.84,0,0,0,1.69-13.73q0-2.82-3.48-4.42a14.43,14.43,0,0,0-5.54-1.6c-.13,0-.19-.25-.19-.75,0-3,.37-4.89,1.13-5.64,1.75.13,4.16.28,7.24.47s5.86.35,8.37.47,5,.19,7.33.19S58.11.75,72.41,0V.94a15.51,15.51,0,0,1-.47,3.48c-.32,1.32-.66,2-1,2A22.68,22.68,0,0,0,65,8Q60.56,9.6,59.8,10.91q-1.12,1.88-2.63,7.9T55.29,26.89Z"/></g></g></svg>