<svg viewBox="0 0 138.43 123.49" xmlns="http://www.w3.org/2000/svg"><g fill="#525566"><path d="m107.71 37.61h-2.07v15.16 1.56h2.11c8.39 0 15.21 7.35 15.21 16.39v19.66c0 9-6.82 16.39-15.21 16.39h-38.75c-8.39 0-15.21-7.35-15.21-16.39v-19.66c0-9 6.82-16.39 15.21-16.39h10.1a11.46 11.46 0 0 0 .11-1.56v-15.16h-10.21c-16.9 0-30.72 14.9-30.72 33.11v19.66c0 18.21 13.82 33.11 30.72 33.11h38.73c16.89 0 30.72-14.9 30.72-33.11v-19.66c-.02-18.21-13.85-33.11-30.74-33.11z"/><path d="m69.45 0h-38.73c-16.9 0-30.72 14.9-30.72 33.11v19.66c0 18.23 13.82 33.11 30.72 33.11h2.07v-15.16c0-.53 0-1 .05-1.56h-2.12c-8.39 0-15.21-7.35-15.21-16.39v-19.66c0-9 6.82-16.39 15.21-16.39h38.73c8.39 0 15.21 7.35 15.21 16.39v19.66c0 9-6.82 16.39-15.21 16.39h-10.09a11.45 11.45 0 0 0 -.12 1.56v15.16h10.21c16.89 0 30.72-14.9 30.72-33.11v-19.66c0-18.21-13.83-33.11-30.72-33.11z"/></g></svg>