<svg xmlns="http://www.w3.org/2000/svg" viewBox="0 0 138.43 123.49"><defs><style>.cls-1{fill:#525566;}</style></defs><title>link</title><g id="レイヤー_2" data-name="レイヤー 2"><g id="レイヤー_3" data-name="レイヤー 3"><path class="cls-1" d="M107.71,37.61h-2.07V52.77c0,.52,0,1,0,1.56h2.11c8.39,0,15.21,7.35,15.21,16.39V90.38c0,9-6.82,16.39-15.21,16.39H69c-8.39,0-15.21-7.35-15.21-16.39V70.72c0-9,6.82-16.39,15.21-16.39h10.1a11.46,11.46,0,0,0,.11-1.56V37.61H69c-16.9,0-30.72,14.9-30.72,33.11V90.38c0,18.21,13.82,33.11,30.72,33.11h38.73c16.89,0,30.72-14.9,30.72-33.11V70.72C138.43,52.51,124.6,37.61,107.71,37.61Z"/><path class="cls-1" d="M69.45,0H30.72C13.82,0,0,14.9,0,33.11V52.77C0,71,13.82,85.88,30.72,85.88h2.07V70.72c0-.53,0-1,.05-1.56H30.72c-8.39,0-15.21-7.35-15.21-16.39V33.11c0-9,6.82-16.39,15.21-16.39H69.45c8.39,0,15.21,7.35,15.21,16.39V52.77c0,9-6.82,16.39-15.21,16.39H59.36a11.45,11.45,0,0,0-.12,1.56V85.88H69.45c16.89,0,30.72-14.9,30.72-33.11V33.11C100.17,14.9,86.34,0,69.45,0Z"/></g></g></svg>