<svg xmlns="http://www.w3.org/2000/svg" viewBox="0 0 126.72 138.95"><defs><style>.cls-1{fill:#525566;}</style></defs><title>marker</title><g id="レイヤー_2" data-name="レイヤー 2"><g id="レイヤー_3" data-name="レイヤー 3"><path class="cls-1" d="M50.37,108.4,56.14,99,14.37,73.31,8.59,82.69s7.54,16.4-2.69,33l8.1,5,8.1,5C32.33,109.06,50.37,108.4,50.37,108.4Z"/><path class="cls-1" d="M99.6,28.41a5.69,5.69,0,0,0-1.86-7.81L65.63.84A5.68,5.68,0,0,0,57.82,2.7L16.46,69.91l41.78,25.7Z"/><polygon class="cls-1" points="0 132.61 14.02 132.61 17.63 126.75 6.97 120.19 0 132.61"/><path class="cls-1" d="M124.8,131.47H25.87A1.92,1.92,0,0,0,24,133.39V137A1.92,1.92,0,0,0,25.87,139H124.8a1.92,1.92,0,0,0,1.92-1.92v-3.64A1.92,1.92,0,0,0,124.8,131.47Z"/></g></g></svg>