<svg viewBox="0 0 126.72 138.95" xmlns="http://www.w3.org/2000/svg"><g fill="#525566"><path d="m50.37 108.4 5.77-9.4-41.77-25.69-5.78 9.38s7.54 16.4-2.69 33l8.1 5 8.1 5c10.23-16.63 28.27-17.29 28.27-17.29z"/><path d="m99.6 28.41a5.69 5.69 0 0 0 -1.86-7.81l-32.11-19.76a5.68 5.68 0 0 0 -7.81 1.86l-41.36 67.21 41.78 25.7z"/><path d="m0 132.61h14.02l3.61-5.86-10.66-6.56z"/><path d="m124.8 131.47h-98.93a1.92 1.92 0 0 0 -1.87 1.92v3.61a1.92 1.92 0 0 0 1.87 2h98.93a1.92 1.92 0 0 0 1.92-1.92v-3.64a1.92 1.92 0 0 0 -1.92-1.97z"/></g></svg>