<svg viewBox="0 0 118.9 94.95" xmlns="http://www.w3.org/2000/svg"><g fill="#525566"><path d="m34.75 0h-17.87c-9.32 0-16.88 8-16.88 17.81v18.85c0 9.84 7.56 17.81 16.88 17.81h1.77a4.44 4.44 0 0 1 3.71 2.06 5 5 0 0 1 .49 4.4l-10.08 27.56a4.94 4.94 0 0 0 .48 4.39 4.43 4.43 0 0 0 3.75 2.12h11.83a4.49 4.49 0 0 0 4-2.55l14.32-28.93a43.35 43.35 0 0 0 4.49-19.26v-26.45c0-9.81-7.56-17.81-16.89-17.81z"/><path d="m102 0h-17.85c-9.33 0-16.88 8-16.88 17.81v18.85c0 9.84 7.55 17.81 16.88 17.81h1.76a4.43 4.43 0 0 1 3.71 2.06 5 5 0 0 1 .49 4.4l-10.11 27.56a4.91 4.91 0 0 0 .49 4.39 4.4 4.4 0 0 0 3.74 2.12h11.86a4.48 4.48 0 0 0 4-2.55l14.33-28.88a43.35 43.35 0 0 0 4.49-19.26v-26.5c-.01-9.81-7.57-17.81-16.91-17.81z"/></g></svg>