<svg xmlns="http://www.w3.org/2000/svg" viewBox="0 0 128.38 123.49"><defs><style>.cls-1{fill:#525566;}</style></defs><title>table</title><g id="レイヤー_2" data-name="レイヤー 2"><g id="レイヤー_3" data-name="レイヤー 3"><path class="cls-1" d="M101.56,0H26.82A26.82,26.82,0,0,0,0,26.82V96.67a26.82,26.82,0,0,0,26.82,26.82h74.74a26.82,26.82,0,0,0,26.82-26.82V26.82A26.82,26.82,0,0,0,101.56,0ZM26.82,15h74.74a11.83,11.83,0,0,1,11.82,11.82V39.13H15V26.82A11.83,11.83,0,0,1,26.82,15ZM50,74.42V48.13H76.33V74.42Zm26.29,9v25.07H50V83.42ZM41,74.42H15V48.13H41ZM85.33,48.13h28.05V74.42h-28ZM15,96.67V83.42H41v25.07H26.82A11.84,11.84,0,0,1,15,96.67Zm86.56,11.82H85.33V83.42h28.05V96.67A11.84,11.84,0,0,1,101.56,108.49Z"/></g></g></svg>