<svg viewBox="0 0 132.8 126.38" xmlns="http://www.w3.org/2000/svg"><g fill="#525566"><path d="m56.57 85.57a11 11 0 0 0 -2.49-4.57l-.08-.18c-.16-.17-.32-.34-.5-.5l-.19-.18c-.17-.15-.33-.29-.51-.43l-.25-.19-.55-.37-.29-.15c-.29-.17-.58-.34-.88-.49s-.34-.17-.51-.24l-.4-.17-.55-.2-.4-.12q-.3-.09-.6-.15l-.37-.11-.68-.1h-.34c-.35 0-.7-.05-1.05-.05h-11.21l.14-1.16 1.45-12.45.27-2.27a5.67 5.67 0 1 0 -11.27 0l1.86 15.88h-11.17a11 11 0 0 0 -11 11v4.88h52v-4.9a11.1 11.1 0 0 0 -.37-2.78z"/><path d="m21.7 97.3h-16.7v6.61a51.9 51.9 0 0 1 -2.07 15.14c-.2.66-.41 1.28-.64 1.88q-.35.89-.69 1.68c-.22.5-.46 1-.69 1.41l-.13.23c-.24.43-.48.84-.72 1.21h31.39c.2-.19.41-.41.62-.65 1.89-2.15 4.11-6.38 4.91-13.44v14.1h15.02c2.74-4.17 4.95-11.76 4.95-21.59v-6.58z"/><path d="m132.05 119.42a28.06 28.06 0 0 1 -7.71-1.6q-5.09-1.59-6.21-4.61-2.64-6.76-6.2-15.42l-38.56-95.35a5.25 5.25 0 0 0 -4.51-2.44q-4.86 0-6.96 4.89l-22.38 51.45a9.72 9.72 0 0 1 1 5.57l-1.3 11.41h6.35a1.75 1.75 0 0 1 0-.35l14.64-33.66 13.54 33.69-.57.94c-3.88.25-8.34.38-13.35.38-3.43 0-6.52-.08-9.27-.22a15.06 15.06 0 0 1 10.11 11.5q13.74 0 17.22.19a2.06 2.06 0 0 1 1.31.75l5.64 13.73q4.71 12.23 4.71 12.6c0 2-1.45 3.6-4.33 4.79a22 22 0 0 1 -8.46 1.79c-.51 0-.76 1-.76 3.1s.25 3.36.76 3.86q27.08-1.5 28.39-1.51 4.89 0 15.71.76t11.56.75c.25-.38.38-1.63.38-3.76s-.25-3.23-.75-3.23z"/></g></svg>